<svg id="Layer_1" data-name="Layer 1" xmlns="http://www.w3.org/2000/svg" viewBox="0 0 99.45 99.45"><defs><style>.cls-1{fill:#3f4040;}</style></defs><title>Artboard 1</title><path class="cls-1" d="M74.8,38.42a16.85,16.85,0,0,0-5.34-3.59,17,17,0,0,0-13.1,0,16.77,16.77,0,0,0-8.94,8.94,16.46,16.46,0,0,0-1.31,6.55l0,25.07,7,5.79V50.31A9.89,9.89,0,0,1,56,43.26a10,10,0,0,1,3.12-2.12,9.71,9.71,0,0,1,7.59,0,9.91,9.91,0,0,1,5.24,5.27,9.84,9.84,0,0,1,.77,3.9,9.43,9.43,0,0,1-.77,3.8,10,10,0,0,1-5.24,5.24,9.43,9.43,0,0,1-3.66.77H56.19v7h7.32a16.36,16.36,0,0,0,5.95-1.36,17.27,17.27,0,0,0,5.34-3.63,16.86,16.86,0,0,0,3.6-5.34,16.29,16.29,0,0,0,1.31-6.48,16.46,16.46,0,0,0-1.31-6.55,16.86,16.86,0,0,0-3.6-5.34"/><path class="cls-1" d="M38,38.57A16.84,16.84,0,0,0,32.63,35a17,17,0,0,0-13.1,0,16.77,16.77,0,0,0-8.93,8.93,16.43,16.43,0,0,0-1.31,6.55h0a16.26,16.26,0,0,0,1.31,6.48,16.89,16.89,0,0,0,3.59,5.34,17.35,17.35,0,0,0,5.34,3.63,16.37,16.37,0,0,0,5.95,1.36h7.38v-7H25.94a9.41,9.41,0,0,1-3.66-.77A10,10,0,0,1,17,54.26a9.43,9.43,0,0,1-.77-3.8h0a9.91,9.91,0,0,1,2.89-7.05,10,10,0,0,1,3.12-2.12,9.7,9.7,0,0,1,7.59,0,9.91,9.91,0,0,1,5.24,5.27,9.83,9.83,0,0,1,.77,3.9V67.27h7V50.46a16.43,16.43,0,0,0-1.31-6.55A16.8,16.8,0,0,0,38,38.57"/><path class="cls-1" d="M73.64,33.23a18.77,18.77,0,0,1,5.18,4.67c1.11-1.16,3.43-3.57,4.25-4.33V66.93h7V16.77Z"/></svg>