<?xml version="1.0" encoding="UTF-8" standalone="no"?>
<svg
   xmlns:dc="http://purl.org/dc/elements/1.1/"
   xmlns:cc="http://creativecommons.org/ns#"
   xmlns:rdf="http://www.w3.org/1999/02/22-rdf-syntax-ns#"
   xmlns:svg="http://www.w3.org/2000/svg"
   xmlns="http://www.w3.org/2000/svg"
   id="svg8"
   version="1.1"
   viewBox="0 0 21.373158 17.041813"
   height="17.041813mm"
   width="21.373158mm">
  <defs
     id="defs2">
    <style
       id="style4608">.cls-1{fill:#3f4040;}</style>
  </defs>
  <metadata
     id="metadata5">
    <rdf:RDF>
      <cc:Work
         rdf:about="">
        <dc:format>image/svg+xml</dc:format>
        <dc:type
           rdf:resource="http://purl.org/dc/dcmitype/StillImage" />
        <dc:title></dc:title>
      </cc:Work>
    </rdf:RDF>
  </metadata>
  <g
     transform="translate(13.710388,-191.71719)"
     id="layer1">
    <g
       transform="matrix(0.26458333,0,0,0.26458333,-16.168251,187.28013)"
       id="g4629">
      <path
         style="fill:#3f4040"
         class="cls-1"
         d="m 74.8,38.42 a 16.85,16.85 0 0 0 -5.34,-3.59 17,17 0 0 0 -13.1,0 16.77,16.77 0 0 0 -8.94,8.94 16.46,16.46 0 0 0 -1.31,6.55 v 25.07 l 7,5.79 V 50.31 a 9.89,9.89 0 0 1 2.89,-7.05 10,10 0 0 1 3.12,-2.12 9.71,9.71 0 0 1 7.59,0 9.91,9.91 0 0 1 5.24,5.27 9.84,9.84 0 0 1 0.77,3.9 9.43,9.43 0 0 1 -0.77,3.8 10,10 0 0 1 -5.24,5.24 9.43,9.43 0 0 1 -3.66,0.77 h -6.86 v 7 h 7.32 a 16.36,16.36 0 0 0 5.95,-1.36 17.27,17.27 0 0 0 5.34,-3.63 16.86,16.86 0 0 0 3.6,-5.34 16.29,16.29 0 0 0 1.31,-6.48 16.46,16.46 0 0 0 -1.31,-6.55 16.86,16.86 0 0 0 -3.6,-5.34"
         id="path4614" />
      <path
         style="fill:#3f4040"
         class="cls-1"
         d="M 38,38.57 A 16.84,16.84 0 0 0 32.63,35 17,17 0 0 0 19.53,35 16.77,16.77 0 0 0 10.6,43.93 16.43,16.43 0 0 0 9.29,50.48 v 0 a 16.26,16.26 0 0 0 1.31,6.48 16.89,16.89 0 0 0 3.59,5.34 17.35,17.35 0 0 0 5.34,3.63 16.37,16.37 0 0 0 5.95,1.36 h 7.38 v -7 H 25.94 A 9.41,9.41 0 0 1 22.28,59.52 10,10 0 0 1 17,54.26 9.43,9.43 0 0 1 16.23,50.46 v 0 a 9.91,9.91 0 0 1 2.89,-7.05 10,10 0 0 1 3.12,-2.12 9.7,9.7 0 0 1 7.59,0 9.91,9.91 0 0 1 5.24,5.27 9.83,9.83 0 0 1 0.77,3.9 v 16.81 h 7 V 50.46 A 16.43,16.43 0 0 0 41.53,43.91 16.8,16.8 0 0 0 38,38.57"
         id="path4616" />
      <path
         style="fill:#3f4040"
         class="cls-1"
         d="m 73.64,33.23 a 18.77,18.77 0 0 1 5.18,4.67 c 1.11,-1.16 3.43,-3.57 4.25,-4.33 v 33.36 h 7 V 16.77 Z"
         id="path4618" />
    </g>
  </g>
</svg>
