<?xml version="1.0" encoding="UTF-8"?> <svg xmlns="http://www.w3.org/2000/svg" xmlns:xlink="http://www.w3.org/1999/xlink" id="Layer_1" data-name="Layer 1" viewBox="0 0 161.18 17.41"> <defs> <style>.cls-1{fill:none;}.cls-2{clip-path:url(#clip-path);}</style> <clipPath id="clip-path" transform="translate(-216.61 -594.88)"> <rect class="cls-1" width="595.28" height="821"></rect> </clipPath> </defs> <title>Liovena - wordmark only</title> <g class="cls-2"> <path d="M224.46,609.7c.7,0,1.06.38,1.06,1.15s-.36,1.18-1.06,1.18H218c-.94,0-1.34-.41-1.34-1.34V597.36c0-.7.43-1.06,1.32-1.06s1.3.36,1.3,1.06V609.7Z" transform="translate(-216.61 -594.88)"></path> <path d="M242.22,611.09c0,.7-.43,1.06-1.3,1.06s-1.32-.36-1.32-1.06V597.36c0-.7.43-1.06,1.32-1.06s1.3.36,1.3,1.06Z" transform="translate(-216.61 -594.88)"></path> <path d="M296.05,597.24c.22-.6.55-.94,1.51-.94s1.22.31,1.22.75a3.68,3.68,0,0,1-.21.89l-4.92,13a2,2,0,0,1-3.7,0l-4.82-13a2.83,2.83,0,0,1-.22-.89c0-.43.29-.75,1.25-.75s1.34.34,1.56.94l4.15,11.67Z" transform="translate(-216.61 -594.88)"></path> <path d="M320.39,602.81c.7,0,1.06.38,1.06,1.15s-.36,1.15-1.06,1.15h-4.85v4.58h6c.7,0,1.06.38,1.06,1.15s-.36,1.18-1.06,1.18h-7.15c-.94,0-1.34-.41-1.34-1.34V597.77c0-.94.41-1.34,1.34-1.34h7c.7,0,1.06.38,1.06,1.15s-.36,1.18-1.06,1.18h-5.81v4.06Z" transform="translate(-216.61 -594.88)"></path> <path d="M339.35,611.09c0,.7-.41,1.06-1.25,1.06s-1.25-.36-1.25-1.06V597.72c0-1,.58-1.42,1.7-1.42a2.3,2.3,0,0,1,2.26,1.27l6.46,10.78v-11c0-.7.43-1.06,1.27-1.06s1.25.36,1.25,1.06v13.37c0,1-.55,1.42-1.56,1.42a2.21,2.21,0,0,1-2.11-1.32l-6.77-11Z" transform="translate(-216.61 -594.88)"></path> <path d="M377.8,611.41c0,.43-.29.74-1.25.74s-1.3-.34-1.51-.94l-1.08-3h-6.26l-1.08,3c-.22.62-.55.94-1.46.94s-1.2-.31-1.2-.74a2.86,2.86,0,0,1,.21-.89l4.9-12.84c.38-1,.77-1.37,1.85-1.37s1.46.34,1.85,1.37l4.83,12.84a2.83,2.83,0,0,1,.22.89M373.14,606l-2.31-6.41L368.51,606Z" transform="translate(-216.61 -594.88)"></path> <path d="M264.94,612.29a6.81,6.81,0,0,1-4.73-1.89c-4.84-4.68.4-11.57,2.64-14.52a2.47,2.47,0,0,1,2.06-1,2.51,2.51,0,0,1,2,1.07c2.27,3.22,7,9.93,2.64,14.43a6.42,6.42,0,0,1-4.64,1.91m-.08-15.11a.22.22,0,0,0-.19.09c-3.09,4.06-5.84,8.6-2.87,11.47a4.4,4.4,0,0,0,6.12,0c3-3.13-1-8.78-2.87-11.5a.22.22,0,0,0-.19-.1" transform="translate(-216.61 -594.88)"></path> </g> </svg> 