<?xml version="1.0" encoding="UTF-8" standalone="no"?>
<svg
   xmlns:dc="http://purl.org/dc/elements/1.1/"
   xmlns:cc="http://creativecommons.org/ns#"
   xmlns:rdf="http://www.w3.org/1999/02/22-rdf-syntax-ns#"
   xmlns:svg="http://www.w3.org/2000/svg"
   xmlns="http://www.w3.org/2000/svg"
   height="44.299999"
   width="178"
   xml:space="preserve"
   viewBox="0 0 178 44.299999"
   y="0px"
   x="0px"
   id="Layer_1"
   version="1.1"><metadata
     id="metadata910"><rdf:RDF><cc:Work
         rdf:about=""><dc:format>image/svg+xml</dc:format><dc:type
           rdf:resource="http://purl.org/dc/dcmitype/StillImage" /><dc:title></dc:title></cc:Work></rdf:RDF></metadata><defs
     id="defs908" /><style
     id="style881"
     type="text/css">
	.st0{fill:#50748A;}
	.st1{fill:#F7B334;}
</style><g
     transform="translate(-1.4,-1.5)"
     id="g897"><path
       style="fill:#50748a"
       id="path883"
       d="m 154.2,13.5 c 0,-1.8 -1.3,-2 -2.4,-2 v -0.7 l 5.7,-0.8 0.2,3.5 h 0.1 c 1.1,-2 3.5,-4 7.1,-4 3,0 7.6,1.8 7.6,9.1 v 12.8 h -3.9 V 19 c 0,-3.5 -1.3,-6.4 -5,-6.4 -2.5,0 -4.5,1.8 -5.2,4 -0.2,0.5 -0.3,1.2 -0.3,1.8 v 12.9 h -3.9 c 0,0.1 0,-17.1 0,-17.8"
       class="st0" /><path
       style="fill:#50748a"
       id="path885"
       d="m 46.7,21.3 c 0.1,5.3 3.4,7.4 7.3,7.4 2.8,0 4.5,-0.5 5.9,-1.1 l 0.7,2.7 c -1.4,0.6 -3.8,1.4 -7.2,1.4 C 47,31.8 43,27.5 43,21 43,14.5 46.9,9.4 53.1,9.4 c 7,0 8.8,6.2 8.8,10.1 0,0.8 0,1.4 -0.1,1.9 z m 11.4,-2.8 c 0,-2.4 -1,-6.3 -5.4,-6.3 -4,0 -5.7,3.6 -6,6.3 z"
       class="st0" /><path
       style="fill:#50748a"
       id="path887"
       d="m 147.4,26.3 c 0,1.9 0.1,3.7 0.3,5.1 h -3.5 l -0.4,-2.7 h -0.1 c -1.2,1.7 -3.5,3.2 -6.6,3.2 -4.3,0 -6.5,-3.1 -6.5,-6.2 0,-5.2 4.6,-8 12.9,-8 v -0.4 c 0,-1.8 -0.5,-5 -4.9,-5 -2,0 -4.1,0.6 -5.6,1.6 l -0.9,-2.6 c 1.8,-1.1 4.4,-1.9 7.1,-1.9 6.6,0 8.2,4.5 8.2,8.8 z m -3.8,-5.8 c -4.2,-0.1 -9.1,0.7 -9.1,4.8 0,2.6 1.7,3.7 3.6,3.7 2.8,0 4.7,-1.8 5.3,-3.6 0.1,-0.4 0.2,-0.8 0.2,-1.2 z"
       class="st0" /><path
       style="fill:#50748a"
       id="path889"
       d="m 84,10 h 3.9 V 31.4 H 84 Z m 4.3,-4.3 c 0,-1.3 -1,-2.3 -2.3,-2.3 -1.3,0 -2.3,1 -2.3,2.3 0,1.3 1,2.3 2.3,2.3 1.3,0 2.3,-1 2.3,-2.3"
       class="st0" /><path
       style="fill:#50748a"
       id="path891"
       d="m 120.9,10 h 3.9 v 21.4 h -3.9 z m 4.4,-4.3 c 0,-1.3 -1,-2.3 -2.3,-2.3 -1.3,0 -2.3,1 -2.3,2.3 0,1.3 1,2.3 2.3,2.3 1.3,0 2.3,-1 2.3,-2.3"
       class="st0" /><path
       style="fill:#50748a"
       id="path893"
       d="m 71.3,10 -5.7,0.8 v 0.7 c 1.3,0 2.4,0.3 2.4,2.6 0,0.8 0,1.7 0,2.6 v 14.7 h 3.9 V 20 c 0,-0.7 0,-1.3 0.1,-1.8 0.5,-2.9 2.5,-5 5.2,-5 0.5,0 0.9,0 1.4,0.1 V 9.7 C 78.2,9.6 77.9,9.6 77.5,9.6 c -2.6,0 -5,1.8 -6,4.7 h -0.1 z"
       class="st0" /><path
       style="fill:#50748a"
       id="path895"
       d="m 106.1,10.1 c 3.2,1.6 2.6,5.5 2.6,5.5 -0.9,-1.8 -2.7,-3 -5.1,-3 -4,0 -6.4,3.6 -6.4,8.2 0,4.4 2.2,8 6.3,8 2.6,0 5,-1.8 5.7,-4.6 0.1,-0.5 0.2,-1.1 0.2,-1.7 v -21 h 3.9 V 26 c 0,1.9 0,4.1 0.2,5.5 H 110 l -0.2,-3.7 h -0.1 c -1.2,2.4 -3.8,4.2 -7.3,4.2 -5.2,0 -9.2,-4.4 -9.2,-10.9 0,-7.2 4.4,-11.5 9.6,-11.5 0.9,-0.1 2.3,0 3.3,0.5"
       class="st0" /></g><path
     style="fill:#50748a"
     id="path899"
     d="m 177.3,4.7 h 0.7 v 3.2 h -0.4 V 5 5 l -1.2,2.9 h -0.2 L 175,5 v 0 2.9 h -0.4 V 4.7 h 0.7 l 1,2.6 z M 172.6,5 h -1.1 V 4.7 H 174 V 5 h -1.1 v 2.9 h -0.3 z"
     class="st0" /><path
     style="fill:#f7b334"
     id="path901"
     d="M 21.8,44.3 C 18.3,44.3 15,43.8 12,42.7 9.6,41.9 7.4,40.7 5.4,39.2 2.1,36.7 0.6,34.2 0.6,34.1 0.4,33.8 0.3,33.5 0.1,33.3 0.1,33.3 0,33.1 0,32.9 c 0,-0.3 0.2,-0.7 0.7,-0.7 0.4,0 0.7,0.4 0.7,0.4 0.3,0.3 1.5,2.3 4.6,4.4 2.9,2 8.1,4.3 15.8,4.3 7.7,0 12.8,-2.4 15.8,-4.3 3.1,-2.1 4.4,-4.1 4.6,-4.4 0,0 0.3,-0.4 0.7,-0.4 0.5,0 0.7,0.5 0.7,0.7 0,0.2 -0.1,0.4 -0.1,0.4 -0.1,0.3 -0.3,0.5 -0.5,0.8 -0.1,0.1 -1.6,2.6 -4.8,5.1 -2,1.5 -4.2,2.6 -6.6,3.5 -3,1.1 -6.3,1.6 -9.8,1.6"
     class="st1" /><path
     style="fill:#50748a"
     id="path903"
     d="M 8.5,2.5 C 8.6,0.7 5.7,1 5.7,1 V 0.1 h 7.9 l 5,14.4 c 1.2,3.7 2.2,6.9 3,10 h 0.1 c 0.8,-3 1.9,-6.3 3.2,-10 L 30.2,0.1 h 4.9 L 37,29.9 H 33.2 L 32.5,16.8 C 32.3,12.6 32,7.6 32,3.9 h -0.1 c -1.1,3.5 -2.3,7.2 -3.8,11.3 L 22.8,29.7 H 19.9 L 15.1,15.5 C 13.7,11.3 12.5,7.4 11.7,3.9 H 11.6 C 11.5,7.6 11.3,12.6 11,17.1 L 10.2,29.9 H 6.6 Z"
     class="st0" /></svg>