<?xml version="1.0" encoding="UTF-8" standalone="no"?>
<!DOCTYPE svg PUBLIC "-//W3C//DTD SVG 1.1//EN" "http://www.w3.org/Graphics/SVG/1.1/DTD/svg11.dtd">
<svg width="100%" height="100%" viewBox="0 0 1500 350" version="1.1" xmlns="http://www.w3.org/2000/svg" xmlns:xlink="http://www.w3.org/1999/xlink" xml:space="preserve" style="fill-rule:evenodd;clip-rule:evenodd;stroke-linejoin:round;stroke-miterlimit:1.41421;">
    <g transform="matrix(0.772918,0,0,0.772918,-24.8264,-19.4318)">
        <path d="M250,127.333C118.925,127.333 64.88,54.111 64.88,54.111C64.88,54.111 67.898,120.013 73.884,148.363C73.884,148.363 32.12,189.613 32.12,291.387C32.12,393.16 119.549,449 250,449C380.451,449 467.88,393.16 467.88,291.387C467.88,197.313 426.116,148.363 426.116,148.363C432.102,120.013 435.12,54.111 435.12,54.111C435.12,54.111 381.075,127.333 250,127.333ZM250,404.534C250,404.534 274.377,379.461 274.377,358.145C274.377,336.828 258.126,333.768 250,333.768C241.874,333.768 225.623,336.828 225.623,358.145C225.623,379.461 250,404.534 250,404.534ZM138.14,209.088C185.052,209.088 223.14,247.175 223.14,294.088C223.14,341.001 185.052,379.088 138.14,379.088C91.227,379.088 53.14,341.001 53.14,294.088C53.14,247.175 91.227,209.088 138.14,209.088ZM361.86,208.92C408.773,208.92 446.86,247.007 446.86,293.92C446.86,340.833 408.773,378.92 361.86,378.92C314.948,378.92 276.86,340.833 276.86,293.92C276.86,247.007 314.948,208.92 361.86,208.92ZM138.14,224.088C176.774,224.088 208.14,255.454 208.14,294.088C208.14,332.722 176.774,364.088 138.14,364.088C99.506,364.088 68.14,332.722 68.14,294.088C68.14,255.454 99.506,224.088 138.14,224.088ZM361.86,223.92C400.494,223.92 431.86,255.286 431.86,293.92C431.86,332.554 400.494,363.92 361.86,363.92C323.226,363.92 291.86,332.554 291.86,293.92C291.86,255.286 323.226,223.92 361.86,223.92ZM138.14,249.088C162.976,249.088 183.14,269.252 183.14,294.088C183.14,318.924 162.976,339.088 138.14,339.088C113.304,339.088 93.14,318.924 93.14,294.088C93.14,269.252 113.304,249.088 138.14,249.088ZM361.86,248.92C386.696,248.92 406.86,269.084 406.86,293.92C406.86,318.756 386.696,338.92 361.86,338.92C337.024,338.92 316.86,318.756 316.86,293.92C316.86,269.084 337.024,248.92 361.86,248.92Z" style="fill:rgb(0,102,221);"/>
    </g>
    <g transform="matrix(1,0,0,1,-236.192,97.9258)">
        <text x="637.172px" y="166.001px" style="font-family:'Ubuntu-Medium', 'Ubuntu', sans-serif;font-weight:500;font-size:260px;fill:rgb(0,102,221);">Scholarly</text>
    </g>
</svg>
