<svg xmlns="http://www.w3.org/2000/svg" width="200" height="29" viewBox="0 0 200 29">
  <path fill="#272C2F" fill-rule="evenodd" d="M291.61,45.271 C292.039,44.277 292.673,43.781 293.512,43.781 C294.111,43.781 294.57,44.032 294.89,44.533 C295.209,45.035 295.409,45.839 295.488,46.945 C295.508,47.15 295.524,47.334 295.533,47.498 C295.543,47.662 295.553,47.841 295.563,48.036 C295.573,48.23 295.578,48.45 295.578,48.696 L295.578,49.587 L290.965,49.587 C290.965,47.703 291.18,46.264 291.61,45.271 L291.61,45.271 Z M300.731,52.962 C300.431,53.428 300.181,53.778 299.982,54.01 C299.782,54.244 299.513,54.472 299.173,54.694 C298.294,55.323 297.226,55.637 295.968,55.637 C292.653,55.637 290.985,53.742 290.965,49.952 L300.881,49.952 C300.761,48.959 300.496,48.057 300.086,47.246 C299.677,46.435 299.153,45.747 298.514,45.178 C297.875,44.612 297.136,44.176 296.298,43.871 C295.458,43.568 294.54,43.416 293.542,43.416 C292.403,43.416 291.34,43.628 290.351,44.054 C289.363,44.48 288.499,45.062 287.76,45.802 C287.021,46.542 286.442,47.409 286.023,48.402 C285.603,49.395 285.393,50.459 285.393,51.593 C285.393,52.709 285.593,53.742 285.993,54.694 C286.392,55.647 286.946,56.473 287.655,57.172 C288.364,57.871 289.203,58.418 290.172,58.814 C291.14,59.209 292.183,59.406 293.302,59.406 C294.48,59.406 295.558,59.179 296.537,58.723 C297.516,58.266 298.354,57.613 299.053,56.762 C299.273,56.478 299.468,56.215 299.637,55.971 C299.807,55.728 299.962,55.475 300.102,55.212 C300.242,54.948 300.381,54.649 300.521,54.314 C300.661,53.98 300.821,53.569 301,53.083 L300.731,52.962 L300.731,52.962 Z M284.008,57.979 C283.928,57.859 283.863,57.727 283.813,57.585 C283.763,57.444 283.724,57.267 283.693,57.055 C283.664,56.843 283.643,56.575 283.634,56.252 C283.623,55.928 283.618,55.534 283.618,55.068 L283.618,36.12 C283.221,36.241 282.884,36.347 282.606,36.437 C282.328,36.529 282.054,36.619 281.787,36.711 C281.518,36.802 281.226,36.893 280.908,36.983 C280.591,37.074 280.193,37.18 279.716,37.302 C279.259,37.423 278.867,37.524 278.539,37.605 C278.211,37.685 277.907,37.762 277.628,37.833 C277.348,37.904 277.063,37.969 276.774,38.03 C276.484,38.091 276.139,38.161 275.74,38.242 L275.8,38.575 C276.299,38.596 276.694,38.672 276.983,38.803 C277.273,38.934 277.527,39.151 277.748,39.455 C277.987,39.778 278.147,40.157 278.226,40.591 C278.306,41.026 278.346,41.698 278.346,42.607 L278.346,55.068 C278.346,56.019 278.316,56.691 278.257,57.085 C278.197,57.48 278.096,57.778 277.957,57.979 C277.777,58.202 277.563,58.358 277.313,58.449 C277.063,58.541 276.679,58.606 276.16,58.647 L276.16,59.011 L285.806,59.011 L285.806,58.647 C285.266,58.606 284.872,58.541 284.622,58.449 C284.372,58.358 284.168,58.202 284.008,57.979 L284.008,57.979 Z M270.134,56.701 C269.611,57.897 268.877,58.495 267.932,58.495 C267.389,58.495 266.897,58.272 266.454,57.826 L266.454,45.848 C266.897,45.564 267.238,45.372 267.48,45.27 C267.721,45.169 267.962,45.118 268.204,45.118 C269.048,45.118 269.711,45.701 270.193,46.866 C270.676,48.032 270.918,49.638 270.918,51.685 C270.918,53.833 270.656,55.505 270.134,56.701 L270.134,56.701 Z M276.114,47.717 C275.843,46.836 275.463,46.075 274.972,45.437 C274.481,44.799 273.895,44.302 273.214,43.947 C272.533,43.593 271.782,43.416 270.961,43.416 C270.2,43.416 269.464,43.567 268.752,43.871 C268.041,44.176 267.275,44.682 266.454,45.392 L266.454,43.416 C266.077,43.557 265.75,43.679 265.471,43.779 C265.193,43.88 264.92,43.977 264.652,44.067 C264.384,44.159 264.091,44.249 263.773,44.34 C263.455,44.432 263.059,44.547 262.582,44.689 C262.106,44.831 261.703,44.946 261.375,45.037 C261.047,45.128 260.743,45.215 260.464,45.295 C260.183,45.375 259.899,45.452 259.609,45.523 C259.32,45.594 258.985,45.669 258.606,45.75 L258.636,46.052 C259.155,46.094 259.559,46.18 259.849,46.311 C260.138,46.442 260.393,46.649 260.613,46.932 C260.733,47.094 260.827,47.265 260.897,47.448 C260.967,47.629 261.022,47.841 261.062,48.084 C261.102,48.326 261.132,48.614 261.152,48.948 C261.172,49.281 261.182,49.67 261.182,50.115 L261.182,60.967 C261.182,61.311 261.177,61.594 261.167,61.817 C261.157,62.039 261.142,62.231 261.122,62.393 C261.102,62.553 261.072,62.716 261.033,62.878 C260.973,63.261 260.842,63.564 260.643,63.787 C260.423,64.07 260.164,64.267 259.864,64.378 C259.565,64.49 259.075,64.574 258.396,64.636 L258.396,65 L269.061,65 L269.061,64.636 C268.421,64.595 267.952,64.53 267.653,64.44 C267.353,64.349 267.114,64.195 266.934,63.974 C266.834,63.854 266.754,63.724 266.695,63.584 C266.634,63.443 266.584,63.263 266.544,63.043 C266.504,62.823 266.479,62.557 266.469,62.247 C266.459,61.935 266.454,61.55 266.454,61.089 L266.454,58.312 C266.975,58.718 267.451,59.001 267.881,59.164 C268.312,59.325 268.818,59.407 269.399,59.407 C270.4,59.407 271.332,59.183 272.193,58.738 C273.054,58.292 273.805,57.674 274.447,56.883 C275.087,56.093 275.592,55.166 275.964,54.101 C276.334,53.038 276.52,51.887 276.52,50.651 C276.52,49.577 276.384,48.599 276.114,47.717 L276.114,47.717 Z M251.522,58.13 C251.332,58.414 250.957,58.586 250.398,58.647 L250.398,59.011 L258.846,59.011 L258.846,58.647 C258.386,58.607 258.042,58.531 257.812,58.42 C257.582,58.308 257.408,58.142 257.288,57.92 C257.188,57.758 257.133,57.582 257.123,57.39 C257.113,57.198 257.098,56.881 257.078,56.436 L257.049,55.679 L257.049,47.716 C257.049,44.849 255.9,43.416 253.604,43.416 C252.964,43.416 252.325,43.522 251.686,43.735 C251.047,43.947 250.408,44.277 249.769,44.723 C249.609,44.825 249.464,44.925 249.335,45.026 C249.205,45.128 249.07,45.239 248.93,45.361 C248.791,45.482 248.641,45.62 248.481,45.771 C248.321,45.924 248.132,46.101 247.912,46.304 C247.554,44.378 246.383,43.416 244.397,43.416 C243.762,43.416 243.151,43.517 242.563,43.719 C241.975,43.922 241.332,44.257 240.633,44.723 C240.413,44.865 240.228,44.992 240.079,45.102 C239.929,45.214 239.784,45.326 239.644,45.437 C239.504,45.549 239.365,45.675 239.225,45.817 C239.085,45.959 238.925,46.121 238.746,46.304 L238.746,43.416 L237.517,43.84 C236.938,44.042 236.409,44.219 235.93,44.369 C235.451,44.521 234.991,44.663 234.552,44.793 C234.112,44.925 233.673,45.046 233.234,45.157 C232.794,45.268 232.335,45.384 231.856,45.505 C231.756,45.546 231.621,45.586 231.451,45.626 C231.281,45.667 231.087,45.707 230.867,45.747 L230.897,46.05 C231.416,46.09 231.82,46.176 232.11,46.307 C232.4,46.439 232.654,46.646 232.874,46.928 C232.994,47.089 233.089,47.261 233.159,47.443 C233.228,47.625 233.284,47.837 233.324,48.079 C233.363,48.321 233.393,48.609 233.413,48.942 C233.433,49.275 233.444,49.663 233.444,50.107 L233.444,55.074 C233.444,56.023 233.419,56.688 233.368,57.072 C233.319,57.456 233.204,57.758 233.024,57.98 C232.845,58.203 232.615,58.359 232.335,58.45 C232.078,58.534 231.68,58.593 231.171,58.634 C230.698,58.593 230.333,58.533 230.104,58.449 C229.854,58.358 229.649,58.201 229.489,57.978 C229.409,57.856 229.34,57.725 229.28,57.583 C229.22,57.441 229.175,57.263 229.145,57.051 C229.115,56.838 229.095,56.569 229.086,56.245 C229.075,55.921 229.07,55.525 229.07,55.059 L229.07,43.355 C228.691,43.497 228.361,43.619 228.082,43.719 C227.802,43.821 227.522,43.917 227.243,44.008 C226.963,44.099 226.663,44.191 226.344,44.282 C226.025,44.373 225.635,44.49 225.176,44.631 C224.716,44.774 224.322,44.89 223.992,44.981 C223.663,45.073 223.359,45.159 223.079,45.239 C222.799,45.32 222.514,45.397 222.226,45.468 C221.936,45.539 221.591,45.615 221.192,45.695 L221.222,46 C221.741,46.04 222.145,46.126 222.435,46.258 C222.724,46.39 222.979,46.597 223.199,46.881 C223.319,47.044 223.414,47.216 223.484,47.398 C223.554,47.58 223.613,47.793 223.663,48.037 C223.713,48.28 223.748,48.568 223.768,48.903 C223.788,49.237 223.798,49.627 223.798,50.073 L223.798,55.059 C223.798,56.012 223.768,56.681 223.708,57.065 C223.648,57.451 223.538,57.755 223.379,57.978 C223.218,58.201 223.014,58.358 222.765,58.449 C222.514,58.54 222.12,58.606 221.581,58.647 L221.581,59.011 L240.153,59.011 L240.153,58.647 C239.874,58.626 239.639,58.576 239.45,58.495 C239.26,58.414 239.115,58.292 239.015,58.13 C238.915,57.968 238.845,57.75 238.806,57.476 C238.766,57.202 238.746,56.853 238.746,56.427 L238.746,46.698 C239.165,46.293 239.539,46.01 239.869,45.848 C240.199,45.685 240.533,45.604 240.873,45.604 C241.172,45.604 241.446,45.665 241.696,45.787 C241.946,45.908 242.131,46.081 242.25,46.304 C242.41,46.567 242.515,46.866 242.565,47.2 C242.615,47.535 242.64,48.047 242.64,48.735 L242.64,56.427 C242.64,56.853 242.62,57.202 242.58,57.476 C242.54,57.75 242.47,57.968 242.37,58.13 C242.27,58.292 242.131,58.414 241.951,58.495 C241.771,58.576 241.541,58.626 241.262,58.647 L241.262,59.011 L249.32,59.011 L249.32,58.647 C249.021,58.626 248.781,58.576 248.601,58.495 C248.422,58.414 248.281,58.292 248.181,58.13 C248.081,57.968 248.012,57.75 247.972,57.476 C247.932,57.202 247.912,56.853 247.912,56.427 L247.912,46.698 C248.355,46.293 248.747,46.005 249.089,45.833 C249.431,45.661 249.773,45.574 250.116,45.574 C250.377,45.574 250.634,45.635 250.886,45.757 C251.137,45.878 251.323,46.04 251.444,46.242 C251.585,46.466 251.68,46.76 251.731,47.124 C251.781,47.489 251.806,48.027 251.806,48.735 L251.806,56.427 C251.806,57.278 251.711,57.846 251.522,58.13 L251.522,58.13 Z M223.843,41.5 C224.132,41.784 224.467,42.012 224.846,42.184 C225.226,42.357 225.635,42.442 226.074,42.442 C226.513,42.442 226.928,42.357 227.318,42.184 C227.707,42.012 228.046,41.784 228.336,41.5 C228.626,41.217 228.856,40.877 229.025,40.482 C229.194,40.086 229.28,39.666 229.28,39.22 C229.28,38.774 229.194,38.354 229.025,37.958 C228.856,37.563 228.626,37.224 228.336,36.94 C228.046,36.656 227.707,36.429 227.318,36.256 C226.928,36.084 226.513,35.997 226.074,35.997 C225.635,35.997 225.221,36.084 224.831,36.256 C224.442,36.429 224.107,36.661 223.828,36.956 C223.548,37.249 223.324,37.588 223.154,37.974 C222.984,38.359 222.899,38.774 222.899,39.22 C222.899,39.666 222.984,40.086 223.154,40.482 C223.324,40.877 223.554,41.217 223.843,41.5 L223.843,41.5 Z M216.579,49.263 L214.542,48.593 C212.645,47.964 211.696,47.04 211.696,45.821 C211.696,45.253 211.901,44.771 212.31,44.374 C212.72,43.979 213.213,43.781 213.793,43.781 C214.272,43.781 214.771,43.917 215.291,44.191 C215.81,44.464 216.32,44.844 216.819,45.331 C217.318,45.817 217.787,46.395 218.226,47.063 C218.665,47.732 219.045,48.462 219.365,49.253 L219.664,49.253 L219.365,44.267 C218.246,43.943 217.278,43.719 216.459,43.598 C215.64,43.477 214.831,43.415 214.033,43.415 C213.114,43.415 212.266,43.543 211.487,43.796 C210.708,44.05 210.034,44.4 209.464,44.847 C208.895,45.295 208.446,45.823 208.117,46.431 C207.787,47.04 207.622,47.7 207.622,48.411 C207.622,49.528 208.031,50.488 208.851,51.289 C209.669,52.092 211.037,52.828 212.954,53.497 L214.422,54.016 C215.48,54.381 216.214,54.778 216.624,55.204 C217.033,55.631 217.238,56.179 217.238,56.849 C217.238,57.499 217.038,58.027 216.639,58.433 C216.239,58.839 215.71,59.042 215.052,59.042 C214.412,59.042 213.768,58.874 213.119,58.54 C212.47,58.206 211.831,57.725 211.202,57.096 C210.573,56.468 209.974,55.703 209.405,54.801 C208.836,53.899 208.311,52.891 207.832,51.776 L207.533,51.776 L207.832,57.826 C208.072,57.927 208.277,58.008 208.446,58.069 C208.616,58.13 208.791,58.191 208.97,58.251 C209.15,58.313 209.345,58.373 209.554,58.434 C209.764,58.494 210.038,58.576 210.378,58.677 C210.897,58.84 211.347,58.964 211.726,59.051 C212.106,59.138 212.455,59.21 212.775,59.266 C213.094,59.322 213.389,59.36 213.658,59.378 C213.928,59.397 214.202,59.407 214.482,59.407 C215.44,59.407 216.329,59.269 217.148,58.996 C217.966,58.722 218.671,58.34 219.26,57.854 C219.849,57.366 220.308,56.782 220.638,56.102 C220.967,55.422 221.132,54.685 221.132,53.893 C221.132,52.796 220.773,51.883 220.054,51.152 C219.335,50.421 218.177,49.791 216.579,49.263 L216.579,49.263 Z M205.466,57.919 C205.366,57.757 205.311,57.58 205.301,57.388 C205.291,57.197 205.275,56.878 205.256,56.434 L205.226,55.675 L205.226,47.641 C205.226,46.792 205.166,46.13 205.046,45.655 C204.927,45.18 204.727,44.771 204.447,44.426 C203.888,43.74 203.059,43.396 201.961,43.396 C201.321,43.396 200.698,43.503 200.089,43.714 C199.479,43.926 198.826,44.265 198.127,44.73 C197.947,44.851 197.786,44.963 197.647,45.063 C197.507,45.165 197.358,45.276 197.198,45.397 C197.038,45.518 196.858,45.66 196.659,45.821 C196.459,45.983 196.219,46.185 195.94,46.428 L195.94,36.12 C195.542,36.261 195.195,36.377 194.897,36.468 C194.599,36.559 194.311,36.65 194.033,36.741 C193.756,36.832 193.462,36.918 193.155,36.998 C192.846,37.08 192.484,37.18 192.068,37.302 C191.67,37.403 191.317,37.494 191.01,37.575 C190.701,37.655 190.402,37.731 190.113,37.802 C189.824,37.873 189.519,37.943 189.2,38.015 C188.88,38.085 188.511,38.161 188.091,38.242 L188.121,38.575 C188.64,38.596 189.045,38.672 189.335,38.803 C189.624,38.934 189.878,39.151 190.098,39.455 C190.318,39.778 190.468,40.157 190.548,40.591 C190.627,41.026 190.668,41.698 190.668,42.607 L190.668,55.068 C190.668,56.019 190.638,56.686 190.578,57.07 C190.518,57.454 190.408,57.757 190.248,57.979 C190.069,58.202 189.839,58.358 189.559,58.449 C189.279,58.541 188.85,58.606 188.271,58.647 L188.271,59.011 L197.348,59.011 L197.348,58.647 C196.988,58.606 196.719,58.53 196.539,58.419 C196.359,58.307 196.219,58.14 196.119,57.917 C196.079,57.816 196.049,57.715 196.03,57.613 C196.01,57.512 195.989,57.38 195.97,57.218 C195.95,57.056 195.94,56.853 195.94,56.609 L195.94,46.881 C196.402,46.476 196.82,46.187 197.192,46.015 C197.564,45.843 197.921,45.757 198.263,45.757 C198.525,45.757 198.776,45.817 199.018,45.938 C199.259,46.06 199.45,46.223 199.591,46.425 C199.753,46.648 199.858,46.896 199.908,47.17 C199.959,47.444 199.984,47.854 199.984,48.401 L199.984,56.427 C199.984,57.278 199.889,57.846 199.699,58.13 C199.509,58.414 199.135,58.586 198.576,58.647 L198.576,59.011 L207.023,59.011 L207.023,58.647 C206.564,58.606 206.219,58.53 205.989,58.419 C205.76,58.308 205.586,58.141 205.466,57.919 L205.466,57.919 Z M186.864,57.152 C186.624,57.193 186.364,57.213 186.085,57.213 C185.186,57.213 184.547,56.964 184.167,56.467 C183.788,55.969 183.598,55.141 183.598,53.984 L183.598,45.21 L186.624,45.21 L187.373,43.811 L183.598,43.811 L183.598,37.609 C183.321,38.015 183.077,38.364 182.869,38.658 C182.66,38.952 182.451,39.225 182.243,39.479 C182.034,39.732 181.816,39.976 181.588,40.208 C181.359,40.442 181.096,40.7 180.798,40.983 C180.083,41.673 179.28,42.352 178.385,43.02 C178.026,43.284 177.712,43.507 177.442,43.689 C177.173,43.872 176.903,44.044 176.634,44.206 C176.364,44.368 176.069,44.53 175.75,44.692 C175.43,44.855 175.061,45.027 174.642,45.21 L178.326,45.21 L178.326,54.319 C178.326,55.436 178.425,56.3 178.624,56.909 C178.823,57.518 179.17,58.026 179.667,58.432 C180.46,59.081 181.443,59.407 182.615,59.407 C183.451,59.407 184.272,59.233 185.081,58.889 C185.89,58.544 186.853,57.954 187.972,57.122 L187.792,56.878 C187.412,57.02 187.103,57.112 186.864,57.152 L186.864,57.152 Z M173.623,57.979 C173.543,57.859 173.478,57.727 173.429,57.585 C173.378,57.444 173.339,57.267 173.308,57.055 C173.279,56.843 173.258,56.575 173.249,56.252 C173.238,55.928 173.233,55.534 173.233,55.068 L173.233,36.12 C172.836,36.241 172.499,36.347 172.221,36.437 C171.943,36.529 171.67,36.619 171.402,36.711 C171.133,36.802 170.841,36.893 170.523,36.983 C170.206,37.074 169.808,37.18 169.331,37.302 C168.874,37.423 168.482,37.524 168.155,37.605 C167.826,37.685 167.522,37.762 167.243,37.833 C166.963,37.904 166.678,37.969 166.389,38.03 C166.099,38.091 165.755,38.161 165.356,38.242 L165.415,38.575 C165.915,38.596 166.309,38.672 166.599,38.803 C166.888,38.934 167.142,39.151 167.363,39.455 C167.602,39.778 167.762,40.157 167.842,40.591 C167.921,41.026 167.961,41.698 167.961,42.607 L167.961,55.068 C167.961,56.019 167.932,56.691 167.872,57.085 C167.812,57.48 167.712,57.778 167.573,57.979 C167.392,58.202 167.178,58.358 166.928,58.449 C166.678,58.541 166.294,58.606 165.775,58.647 L165.775,59.011 L175.421,59.011 L175.421,58.647 C174.881,58.606 174.487,58.541 174.237,58.449 C173.987,58.358 173.783,58.202 173.623,57.979 L173.623,57.979 Z M157.908,55.059 C157.908,55.769 157.747,56.326 157.428,56.731 C157.109,57.137 156.669,57.339 156.11,57.339 C155.551,57.339 155.122,57.096 154.822,56.61 C154.523,56.123 154.372,55.424 154.372,54.512 C154.372,53.742 154.482,53.104 154.702,52.597 C154.922,52.09 155.281,51.665 155.781,51.32 C156.06,51.097 156.34,50.93 156.619,50.818 C156.899,50.707 157.328,50.55 157.908,50.347 L157.908,55.059 L157.908,55.059 Z M165.695,56.762 C165.416,56.924 165.191,57.03 165.022,57.081 C164.852,57.132 164.678,57.157 164.498,57.157 C164.238,57.157 164.008,57.101 163.809,56.99 C163.609,56.879 163.468,56.721 163.389,56.518 C163.289,56.336 163.229,56.119 163.21,55.865 C163.189,55.611 163.18,55.191 163.18,54.604 L163.18,47.611 C163.18,46.72 163.095,46.025 162.926,45.528 C162.757,45.032 162.454,44.601 162.018,44.236 C161.363,43.689 160.459,43.416 159.307,43.416 C158.195,43.416 156.974,43.573 155.646,43.886 C154.318,44.201 153.035,44.652 151.797,45.24 C149.48,46.314 148.322,47.591 148.322,49.07 C148.322,49.699 148.516,50.21 148.906,50.606 C149.296,51 149.799,51.198 150.419,51.198 C151.257,51.198 151.961,50.92 152.531,50.362 C153.1,49.805 153.444,49.04 153.564,48.067 L153.684,47.155 C153.784,46.507 153.898,45.999 154.028,45.635 C154.158,45.27 154.353,44.976 154.612,44.753 C154.812,44.591 155.047,44.46 155.316,44.357 C155.586,44.257 155.86,44.206 156.14,44.206 C156.519,44.206 156.849,44.312 157.129,44.525 C157.408,44.738 157.597,45.027 157.697,45.392 C157.837,45.898 157.908,46.902 157.908,48.401 L157.908,49.982 C154.692,50.935 152.176,51.927 150.359,52.962 C148.96,53.772 148.262,54.816 148.262,56.093 C148.262,57.086 148.66,57.886 149.457,58.494 C150.255,59.102 151.282,59.407 152.537,59.407 C153.932,59.407 155.127,59.062 156.124,58.373 C156.483,58.13 156.782,57.886 157.021,57.644 C157.26,57.401 157.559,57.025 157.918,56.518 C158.297,58.464 159.293,59.437 160.908,59.437 C161.665,59.437 162.422,59.249 163.181,58.874 C163.938,58.5 164.837,57.867 165.876,56.975 L165.695,56.762 L165.695,56.762 Z M137.398,45.271 C137.827,44.277 138.461,43.781 139.299,43.781 C139.898,43.781 140.358,44.032 140.678,44.533 C140.997,45.035 141.197,45.839 141.276,46.945 C141.296,47.15 141.312,47.334 141.321,47.498 C141.331,47.662 141.341,47.841 141.351,48.036 C141.361,48.23 141.366,48.45 141.366,48.696 L141.366,49.587 L136.753,49.587 C136.753,47.703 136.968,46.264 137.398,45.271 L137.398,45.271 Z M145.77,54.01 C145.57,54.244 145.3,54.472 144.961,54.694 C144.082,55.323 143.014,55.637 141.756,55.637 C138.441,55.637 136.773,53.742 136.753,49.952 L146.669,49.952 C146.549,48.959 146.284,48.057 145.874,47.246 C145.465,46.435 144.941,45.747 144.302,45.178 C143.663,44.612 142.924,44.176 142.085,43.871 C141.247,43.568 140.328,43.416 139.329,43.416 C138.191,43.416 137.128,43.628 136.139,44.054 C135.151,44.48 134.287,45.062 133.548,45.802 C132.809,46.542 132.23,47.409 131.811,48.402 C131.391,49.395 131.181,50.459 131.181,51.593 C131.181,52.709 131.381,53.742 131.781,54.694 C132.18,55.647 132.734,56.473 133.443,57.172 C134.152,57.871 134.991,58.418 135.959,58.814 C136.928,59.209 137.971,59.406 139.09,59.406 C140.268,59.406 141.346,59.179 142.325,58.723 C143.303,58.266 144.141,57.613 144.841,56.762 C145.061,56.478 145.256,56.215 145.425,55.971 C145.595,55.728 145.75,55.475 145.89,55.212 C146.029,54.948 146.169,54.649 146.309,54.314 C146.449,53.98 146.609,53.569 146.788,53.083 L146.519,52.962 C146.219,53.428 145.969,53.778 145.77,54.01 L145.77,54.01 Z M132.887,42.002 C133.277,41.364 133.661,40.812 134.041,40.345 C134.32,40 134.585,39.748 134.835,39.585 C135.084,39.423 135.459,39.241 135.958,39.038 L135.958,38.734 L128.439,38.734 L128.439,39.038 C128.878,39.139 129.208,39.246 129.427,39.357 C129.647,39.469 129.847,39.636 130.027,39.859 C130.526,40.487 130.776,41.389 130.776,42.564 C130.776,43.598 130.571,44.794 130.162,46.152 C129.752,47.51 129.168,48.989 128.409,50.59 L127.66,52.141 L123.916,43.111 C123.736,42.666 123.591,42.23 123.482,41.804 C123.371,41.378 123.317,41.044 123.317,40.801 C123.317,39.808 123.856,39.22 124.935,39.038 L124.935,38.734 L114.09,38.734 L114.09,39.038 C114.47,39.099 114.765,39.174 114.974,39.266 C115.184,39.357 115.369,39.484 115.528,39.646 C115.987,40.112 116.477,40.953 116.996,42.169 L118.763,46.364 L115.708,52.597 L111.035,41.713 C110.856,41.288 110.765,40.912 110.765,40.588 C110.765,40.204 110.86,39.894 111.05,39.661 C111.24,39.428 111.554,39.22 111.994,39.038 L111.994,38.734 L101,38.734 L101,39.038 C101.579,39.2 102.028,39.368 102.348,39.539 C102.667,39.711 102.967,39.97 103.246,40.315 C103.586,40.72 103.956,41.257 104.355,41.925 C104.755,42.595 105.094,43.254 105.373,43.902 L112.533,60.015 L118.914,46.881 L124.545,60.015 L131.854,43.963 C132.154,43.294 132.498,42.64 132.887,42.002 L132.887,42.002 Z" transform="translate(-101 -36)"/>
</svg>
